:SAMPLES-PER-SECOND 30
:FULLY-SPECIFIED
:DEGREES
1248
root  4.69486 40.3343 -3.38185 -0.102081 78.0717 -1.45096
RightUpLeg  -16.5861 -14.84 -3.03168
RightLeg  29.6078 -2.25643 -1.62482
RightFoot  -5.14861 -0.181461 2.69655
RightToes  0.000482159 0.542163 -0.142577
Spine  13.7138 1.87413 -1.62513
Spine1  -4.71163 1.58982 0.647115
HEad  11.9343 3.33814 3.09861
LeftShoulder1  1.06398 -1.74632 -13.1552
LeftArm  -24.1323 30.2341 -10.2834
LeftForeArm  15.1292 -16.2269 -1.16147
LeftHand  -0.25398 0.0180481 5.50724
RightShoulder  1.09395 2.13554 12.333
RightArm  -13.8525 -11.5724 10.7698
RightForeArm  -12.0582 12.1206 6.00644
RightHand  -4.2267 11.5416 -28.7853
LeftUpLeg  1.41165 8.19784 2.24511
LeftLeg  9.93269 22.5347 -2.80039
LeftFoot  -13.3666 0.00870925 -4.0424
LeftToes  1.06246e-005 4.65854e-005 -8.18503e-006
1249
root  5.03078 40.3152 -3.25334 -1.61612 77.7852 -3.06294
RightUpLeg  -18.5719 -15.1719 -2.65497
RightLeg  28.9353 -1.65061 -1.21914
RightFoot  -5.19664 -0.199409 3.01435
RightToes  0.000482159 0.542163 -0.142577
Spine  13.9573 1.72718 -1.62944
Spine1  -4.5435 1.38374 1.03865
HEad  11.882 4.09507 2.60706
LeftShoulder1  1.24952 -2.15608 -15.1398
LeftArm  -25.1771 30.9454 -12.7457
LeftForeArm  18.3239 -16.9097 -1.29192
LeftHand  -0.25398 0.0180481 5.50724
RightShoulder  1.51747 3.23312 15.7868
RightArm  -10.0222 -13.6433 12.4081
RightForeArm  -3.17792 13.4918 5.84764
RightHand  -3.00052 8.86768 -24.5344
LeftUpLeg  1.93533 8.27424 2.69155
LeftLeg  9.97954 22.6683 -2.61037
LeftFoot  -13.6967 -0.00812237 -4.3845
LeftToes  1.06246e-005 4.65854e-005 -8.18503e-006
1250
root  5.41976 40.3018 -3.09845 -3.19278 77.8735 -4.82417
RightUpLeg  -20.0458 -16.3933 -2.21732
RightLeg  26.0203 -2.00703 -1.28387
RightFoot  -5.1251 -0.20185 3.07635
RightToes  0.000482159 0.542163 -0.142577
Spine  14.3075 1.5079 -1.66741
Spine1  -4.53974 1.04671 1.83287
HEad  11.5925 4.86228 1.77987
LeftShoulder1  1.48092 -2.68562 -17.1626
LeftArm  -26.1388 31.6527 -15.9491
LeftForeArm  21.736 -17.0733 -1.18336
LeftHand  -0.25398 0.0180481 5.50724
RightShoulder  1.94291 4.13824 18.9571
RightArm  -6.77589 -16.0809 14.5731
RightForeArm  3.29451 14.3121 5.68973
RightHand  -2.32365 7.28873 -21.4822
LeftUpLeg  2.46829 8.23711 3.13961
LeftLeg  9.87046 22.4917 -2.41168
LeftFoot  -13.9576 -0.0236177 -4.69677
LeftToes  1.06246e-005 4.65854e-005 -8.18503e-006
1251
root  5.86794 40.2599 -2.90901 -4.04343 78.0558 -5.78021
RightUpLeg  -21.2652 -17.9746 -1.88614
RightLeg  22.2299 -2.58839 -1.39254
RightFoot  -5.14617 -0.208521 3.20701
RightToes  0.000482159 0.542163 -0.142577
Spine  14.9002 1.31775 -1.82581
Spine1  -4.64378 0.715632 2.68774
HEad  11.0434 5.59388 0.716427
LeftShoulder1  1.73564 -3.17059 -19.41
LeftArm  -26.871 32.113 -19.513
LeftForeArm  24.3823 -16.9117 -1.00023
LeftHand  -0.25398 0.0180481 5.50724
RightShoulder  2.24745 4.65408 21.2321
RightArm  -5.00584 -19.13 18.1134
RightForeArm  5.14064 14.9045 5.65088
RightHand  -1.88454 5.69338 -19.942
LeftUpLeg  3.07173 8.12618 3.44629
LeftLeg  9.93621 22.4418 -2.13924
LeftFoot  -14.2331 -0.0324397 -4.66614
LeftToes  1.06246e-005 4.65854e-005 -8.18503e-006
1252
root  6.37776 40.179 -2.6751 -3.74133 78.355 -5.3571
RightUpLeg  -22.128 -19.6502 -1.87925
RightLeg  18.2794 -2.56557 -1.10216
RightFoot  -5.37382 -0.230519 3.71852
RightToes  0.000482159 0.542163 -0.142577
Spine  15.6605 1.16698 -2.25358
Spine1  -4.55101 0.376215 3.59073
HEad  10.0684 6.20698 -0.329212
LeftShoulder1  2.00764 -3.59431 -21.8433
LeftArm  -27.218 32.2282 -23.2543
LeftForeArm  25.357 -16.6131 -0.920297
LeftHand  -0.25398 0.0180481 5.50724
RightShoulder  2.46412 4.90293 23.0944
RightArm  -5.09971 -22.6211 22.4926
RightForeArm  4.97135 15.426 5.56405
RightHand  -1.46742 3.85643 -18.5891
LeftUpLeg  4.0052 8.04194 3.61199
LeftLeg  10.0317 22.2599 -1.9826
LeftFoot  -14.5783 -0.0466927 -4.73647
LeftToes  1.06246e-005 4.65854e-005 -8.18503e-006
1253
root  6.9536 40.0564 -2.38871 -2.13745 78.8769 -3.45168
RightUpLeg  -22.4834 -20.174 -2.80685
RightLeg  14.629 -3.12699 -0.327124
RightFoot  -5.31338 -0.254479 4.14327
RightToes  0.000482159 0.542163 -0.142577
Spine  16.4009 0.978436 -3.07821
Spine1  -4.15132 -0.0993083 4.65324
HEad  8.80773 6.81266 -1.17407
LeftShoulder1  2.28776 -3.9426 -24.4179
LeftArm  -27.3227 32.0585 -26.9189
LeftForeArm  25.1138 -16.4159 -1.01309
LeftHand  -0.25398 0.0180481 5.50724
RightShoulder  2.67139 5.08132 24.9926
RightArm  -6.73719 -26.1234 27.1498
RightForeArm  5.68053 15.6557 5.38186
RightHand  -1.11004 2.38883 -16.718
LeftUpLeg  5.29907 7.9811 3.67272
LeftLeg  10.0213 21.5308 -2.03207
LeftFoot  -15.1597 -0.0929215 -5.4943
LeftToes  1.06246e-005 4.65854e-005 -8.18503e-006
1254
root  7.61306 39.8914 -2.0471 0.581299 79.4784 -0.448572
RightUpLeg  -22.4528 -18.2488 -4.98855
RightLeg  11.684 -5.84221 0.722813
RightFoot  -4.91796 -0.26759 4.16962
RightToes  0.000482159 0.542163 -0.142577
Spine  17.0154 0.717061 -4.09359
Spine1  -3.71093 -0.691082 5.67147
HEad  7.713 7.5246 -1.7681
LeftShoulder1  2.51136 -4.05509 -27.0203
LeftArm  -27.4471 31.6282 -30.3414
LeftForeArm  25.2401 -16.4423 -1.18483
LeftHand  -0.25398 0.0180481 5.50724
RightShoulder  2.81889 5.13443 26.575
RightArm  -9.30209 -29.3735 32.3671
RightForeArm  7.26563 15.271 5.23312
RightHand  -0.843091 1.23896 -14.8896
LeftUpLeg  6.66809 7.96176 3.69841
LeftLeg  10.1253 20.6167 -2.09197
LeftFoot  -15.9537 -0.16142 -6.38227
LeftToes  1.06246e-005 4.65854e-005 -8.18503e-006
1255
root  8.37729 39.6846 -1.6461 3.7493 79.9801 2.94463
RightUpLeg  -22.4515 -16.2956 -6.93561
RightLeg  9.47393 -8.10888 1.42029
RightFoot  -4.78678 -0.276417 4.25396
RightToes  0.000482159 0.542163 -0.142577
Spine  17.5175 0.37986 -4.95994
Spine1  -3.44849 -1.29652 6.35487
HEad  7.10335 8.27478 -2.10736
LeftShoulder1  2.60499 -3.84566 -29.2815
LeftArm  -27.5696 31.0838 -33.7076
LeftForeArm  26.6648 -16.6356 -1.34902
LeftHand  -0.25398 0.0180481 5.50724
RightShoulder  2.84036 4.96503 27.5091
RightArm  -12.1283 -32.2894 38.2197
RightForeArm  8.85319 14.2567 5.20078
RightHand  -0.595701 -0.242557 -13.4296
LeftUpLeg  8.05058 8.09221 3.85984
LeftLeg  10.4834 19.9316 -2.05614
LeftFoot  -16.7283 -0.219933 -6.80168
LeftToes  1.06246e-005 4.65854e-005 -8.18503e-006
1256
root  9.24591 39.4524 -1.18216 6.44336 80.4597 5.91841
RightUpLeg  -22.2601 -15.0679 -8.20294
RightLeg  8.07534 -9.26501 1.82021
RightFoot  -4.60419 -0.287425 4.33528
RightToes  0.000482159 0.542163 -0.142577
Spine  17.8654 -0.0664833 -5.54659
Spine1  -3.16117 -1.967 6.88067
HEad  6.97734 8.97074 -2.27737
LeftShoulder1  2.58601 -3.48199 -30.8517
LeftArm  -27.4611 30.7233 -37.2797
LeftForeArm  28.7482 -16.8783 -1.52584
LeftHand  -0.25398 0.0180481 5.50724
RightShoulder  2.813 4.73992 28.1078
RightArm  -14.2927 -34.8127 43.7811
RightForeArm  11.4905 13.0383 5.23186
RightHand  -0.310917 -2.33916 -11.2059
LeftUpLeg  9.76727 8.35024 4.35005
LeftLeg  10.6718 18.9731 -2.07945
LeftFoot  -17.3614 -0.292478 -7.52191
LeftToes  1.06246e-005 4.65854e-005 -8.18503e-006
1257
root  10.1981 39.2347 -0.65775 7.53091 81.0189 7.22214
RightUpLeg  -22.228 -14.9551 -8.35547
RightLeg  8.28453 -9.08157 1.84015
RightFoot  -2.97096 -0.280296 3.59391
RightToes  0.000482159 0.542163 -0.142577
Spine  17.8668 -0.624287 -5.78147
Spine1  -2.57535 -2.77385 7.64578
HEad  7.20521 9.64274 -2.48261
LeftShoulder1  2.55761 -3.22031 -31.8611
LeftArm  -27.0541 30.6449 -40.8246
LeftForeArm  30.3347 -17.004 -1.71548
LeftHand  -0.25398 0.0180481 5.50724
RightShoulder  2.83897 4.67351 28.717
RightArm  -14.8498 -36.9276 47.9518
RightForeArm  16.5314 12.275 5.28927
RightHand  -0.0845929 -4.52623 -7.20284
LeftUpLeg  11.7571 8.6464 5.26991
LeftLeg  10.4227 17.3505 -2.05611
LeftFoot  -17.8134 -0.408976 -9.10472
LeftToes  1.06246e-005 4.65854e-005 -8.18503e-006
